<svg id="e43251fe-2b99-4b63-8176-d5da4893f038" data-name="Layer 1" xmlns="http://www.w3.org/2000/svg" width="1177.82" height="724.47" viewBox="0 0 1177.8199462890625 724.469970703125"  xmlns:xlink="http://www.w3.org/1999/xlink"><rect id="svgEditorBackground" x="0" y="0" width="1177.82" height="724.47" style="fill:none;stroke:none;"/><title>under construction</title><path d="M1188.91,553.07a241.36,241.36,0,0,1,-7.069999999999936,58.24000000000001q-2.380000000000109,9.629999999999995,-5.529999999999973,18.860000000000014a222.72,222.72,0,0,1,-8.920000000000073,22.32000000000005q-2.5499999999999545,5.519999999999982,-5.3900000000001,10.82000000000005a145.56,145.56,0,0,1,-12.170000000000073,58.49000000000001a150.79,150.79,0,0,1,-73.18000000000006,75.39999999999998a153.93,153.93,0,0,1,-65.33000000000004,15h-776.6399999999999a195.68,195.68,0,0,1,-98.42000000000002,-26.309999999999945l-0.46000000000000796,-0.2599999999999909q-6.389999999999986,-3.740000000000009,-12.460000000000008,-7.919999999999959a195.41,195.41,0,0,1,-25.569999999999993,-21.08000000000004a190.28,190.28,0,0,1,-28.109999999999985,-34.83000000000027a185.86,185.86,0,0,1,-28.590000000000003,-99.23000000000002c-18.95,-33.25,-30,-73.08000000000004,-30,-115.88c0,-54,17.56,-103.25999999999999,46.41,-140.55a197.6,197.6,0,0,1,19.710000000000008,-21.930000000000007a183.42,183.42,0,0,1,22.539999999999992,-18.44999999999999a175.38,175.38,0,0,1,20,-12c2.8900000000000006,-1.4700000000000273,5.790000000000006,-2.8600000000000136,8.740000000000009,-4.149999999999977c2.5900000000000034,-1.1499999999999773,5.210000000000008,-2.2200000000000273,7.860000000000014,-3.230000000000018q4.77000000000001,-1.8100000000000023,9.659999999999997,-3.329999999999984t9.650000000000006,-2.660000000000025q7,-1.7099999999999795,14.240000000000009,-2.7799999999999727c4,-0.589999999999975,8,-1,12,-1.3100000000000023c3.180000000000007,-0.2400000000000091,6.389999999999986,-0.37000000000000455,9.620000000000005,-0.410000000000025h1.75c3.5600000000000023,0,7.099999999999994,0.13999999999998636,10.609999999999985,0.37999999999999545c0.37000000000000455,-0.7400000000000091,0.7700000000000102,-1.490000000000009,1.1399999999999864,-2.2200000000000273c1.4000000000000057,-2.670000000000016,2.8499999999999943,-5.329999999999984,4.310000000000002,-7.930000000000007a0.25,0.25,0,0,1,0,-0.06999999999999318c0.25,-0.45999999999997954,0.5,-0.910000000000025,0.7599999999999909,-1.3500000000000227c1.1800000000000068,-2.1299999999999955,2.4099999999999966,-4.240000000000009,3.6699999999999875,-6.329999999999984c0.5800000000000125,-1,1.1500000000000057,-1.9399999999999977,1.740000000000009,-2.8799999999999955a7.66,7.66,0,0,1,0.4099999999999966,-0.6800000000000068q0.9000000000000057,-1.5,1.8300000000000125,-3q4.6299999999999955,-7.399999999999977,9.629999999999995,-14.54000000000002l0.8499999999999943,-1.2200000000000273c0.5200000000000102,-0.7400000000000091,1,-1.460000000000008,1.5800000000000125,-2.1999999999999886c1.3799999999999955,-1.9300000000000068,2.8000000000000114,-3.8700000000000045,4.22999999999999,-5.77000000000001c1,-1.3600000000000136,2,-2.710000000000008,3.0800000000000125,-4q3.9000000000000057,-5,8,-10t8.52000000000001,-9.870000000000005c0.4000000000000057,-0.44999999999998863,0.8000000000000114,-0.8899999999999864,1.2199999999999989,-1.3300000000000125l4.27000000000001,-4.659999999999997h0c0.20999999999997954,-0.21999999999999886,0.38999999999998636,-0.4199999999999875,0.589999999999975,-0.6200000000000045h0c0.5099999999999909,-0.5500000000000114,1,-1.0999999999999943,1.5500000000000114,-1.6299999999999955c2.2900000000000205,-2.430000000000007,4.639999999999986,-4.810000000000002,7,-7.180000000000007a381.2,381.2,0,0,1,38.30000000000001,-33.370000000000005c0.5299999999999727,-0.4199999999999875,1.0699999999999932,-0.8199999999999932,1.6000000000000227,-1.2199999999999989c2.5400000000000205,-1.9099999999999966,5.1200000000000045,-3.8000000000000114,7.699999999999989,-5.659999999999997a405.31,405.31,0,0,1,44.40999999999997,-27.69999999999999c1.0600000000000023,-0.6100000000000136,2.1399999999999864,-1.1800000000000068,3.230000000000018,-1.740000000000009a424,424,0,0,1,42.49000000000001,-19.560000000000002c7.910000000000025,-3.1299999999999955,16,-6.069999999999993,24.139999999999986,-8.760000000000005c5.420000000000016,-1.7800000000000011,10.860000000000014,-3.469999999999999,16.370000000000005,-5.060000000000002q12.919999999999959,-3.719999999999814,26.019999999999982,-6.669999999999817a463.35,463.35,0,0,1,78.24000000000007,-10.659999999999997q12,-0.6099999999999994,24.269999999999982,-0.6299999999999955a465,465,0,0,1,117,14.799999999999997a4.22,4.22,0,0,0,3.6299999999999955,1.8900000000000006h3.3600000000000136c1.4600000000000364,0.4000000000000057,2.909999999999968,0.7999999999999972,4.3700000000000045,1.2199999999999989q12.230000000000018,3.519999999999996,24.110000000000014,7.689999999999998l2,0.7199999999999989a430.44,430.44,0,0,1,56.90999999999997,24.999999999999986a410.69,410.69,0,0,1,47.64999999999998,29.439999999999998q3.509999999999991,2.5200000000000102,6.919999999999959,5.0800000000000125q4.139999999999986,-2.6500000000000057,8.419999999999959,-5.0800000000000125a165.62,165.62,0,0,1,34.879999999999995,-14.870000000000005a159.1,159.1,0,0,1,78.24000000000001,-3.0600000000000023c33.25,7.050000000000011,63.35000000000002,24.55000000000001,87.65999999999997,49.44a204.55,204.55,0,0,1,26.289999999999964,33.379999999999995c0.5499999999999545,0.8600000000000136,1.099999999999909,1.7299999999999898,1.6300000000001091,2.6100000000000136a220,220,0,0,1,16.74000000000001,33.370000000000005c0.17000000000007276,0.4300000000000068,0.33999999999991815,0.8299999999999841,0.4900000000000091,1.25a231.09,231.09,0,0,1,10.299999999999955,33.35000000000002c0.11999999999989086,0.5799999999999841,0.2599999999999909,1.1499999999999773,0.38000000000010914,1.7300000000000182a240.11,240.11,0,0,1,4.920000000000073,33.370000000000005c0,0.39999999999997726,0,0.8100000000000023,0.07999999999992724,1.2300000000000182q0.6300000000001091,8.70999999999998,0.6400000000001,17.600000000000023c0,5.300000000000011,-0.18000000000006366,10.560000000000002,-0.5099999999999909,15.779999999999973c0,0.5699999999999932,-0.07999999999992724,1.160000000000025,-0.13000000000010914,1.75c-0.08999999999991815,1.509999999999991,-0.22000000000002728,3,-0.34999999999990905,4.519999999999982a189.79,189.79,0,0,1,21.38000000000011,20.170000000000016q4.369999999999891,4.769999999999982,8.460000000000036,9.899999999999977a210.61,210.61,0,0,1,21.799999999999955,33.370000000000005c16.909999999999854,31.91999999999996,26.62999999999988,69.46999999999997,26.62999999999988,109.66000000000003Z" transform="translate(-11.09 -87.76)" fill="#02818f" opacity="0.1"/><path d="M1075.91,793.5c0,6.830000000000041,-23.529999999999973,13.230000000000018,-64.59000000000003,18.730000000000018h-776.6400000000001a195.68,195.68,0,0,1,-98.42000000000002,-26.309999999999945l-0.46000000000000796,-0.2599999999999909c11.800000000000011,-4.2999999999999545,33.099999999999994,-8.309999999999945,62.09,-11.92999999999995h0l1.3000000000000114,-0.15999999999996817c13,-1.5900000000000318,27.53,-3.1000000000000227,43.41,-4.529999999999973c0.4000000000000057,0,0.8100000000000023,-0.05999999999994543,1.210000000000008,-0.11000000000001364h0q18.899999999999977,-1.67999999999995,40.20999999999998,-3.1499999999999773c0.44999999999998863,0,0.8899999999999864,-0.08000000000004093,1.339999999999975,-0.10000000000002274q8.220000000000027,-0.5900000000000318,16.78000000000003,-1.1200000000000045h0l2.1999999999999886,-0.13999999999998636c41.55000000000001,-2.580000000000041,88.78000000000003,-4.639999999999986,140,-6h0.060000000000002274q10.759999999999991,-0.2999999999999545,21.75,-0.5299999999999727q12.220000000000027,-0.2899999999999636,24.74000000000001,-0.5099999999999909c6.3700000000000045,-0.13999999999998636,12.819999999999993,-0.2400000000000091,19.29000000000002,-0.34000000000003183h0.14999999999997726c29.190000000000055,-0.44000000000005457,59.34999999999991,-0.6599999999999682,90.19000000000005,-0.6599999999999682c76.25999999999999,0,148.34000000000003,1.3899999999999864,212.21000000000004,3.8899999999999864h0.17999999999994998c9.82000000000005,0.37999999999999545,19.460000000000036,0.7999999999999545,28.860000000000014,1.2300000000000182l8,0.37999999999999545q15.909999999999968,0.7599999999999909,31,1.6299999999999955h0c118.30000000000007,6.729999999999791,195.1400000000001,17.65999999999974,195.1400000000001,29.98999999999978Z" transform="translate(-11.09 -87.76)" fill="#02818f" opacity="0.1"/><g opacity="0.2"><path d="M691.37,751.79A19,19,0,0,1,691,755q-10.44-1.66-21-3c0-.28,0-.57,0-.86a16.88,16.88,0,0,1,2.5-8.48c2.06-3.26,5.19-5.3,8.64-5.19s6.44,2.34,8.29,5.71A16.87,16.87,0,0,1,691.37,751.79Z" transform="translate(-11.09 -87.76)" fill="#3f3d56"/><ellipse cx="681.21" cy="734.33" rx="14.01" ry="10.7" transform="translate(-85.32 1304.28) rotate(-88.19)" fill="#3f3d56"/><ellipse cx="681.75" cy="717.21" rx="14.01" ry="10.7" transform="translate(-67.68 1288.24) rotate(-88.19)" fill="#3f3d56"/><ellipse cx="682.29" cy="700.09" rx="14.01" ry="10.7" transform="translate(-50.05 1272.2) rotate(-88.19)" fill="#3f3d56"/><ellipse cx="682.83" cy="682.97" rx="14.01" ry="10.7" transform="translate(-32.42 1256.16) rotate(-88.19)" fill="#3f3d56"/><path d="M646.47,564.55a49.66,49.66,0,0,1,-3.7999999999999545,-6l28.25999999999999,-3.730000000000018l-30.41999999999996,-0.7300000000000182a51.38,51.38,0,0,1,0.30999999999994543,-40.639999999999986l40.120000000000005,22.450000000000045l-36.75,-28.839999999999975a51.28,51.28,0,1,1,82.84000000000003,59.99999999999994a50.8,50.8,0,0,1,5.5499999999999545,9.529999999999973l-37.09000000000003,17.799999999999955l39.33000000000004,-11.830000000000041a51.34,51.34,0,0,1,-9.82000000000005,47.910000000000196a51.28,51.28,0,1,1,-80.55999999999995,-2.5399999999999636a51.28,51.28,0,0,1,2,-63.379999999999995Z" transform="translate(-11.09 -87.76)" fill="#02818f"/><path d="M737,599.13a51,51,0,0,1-12,31.34,51.28,51.28,0,1,1-80.56-2.54C637.87,619,737.18,593.38,737,599.13Z" transform="translate(-11.09 -87.76)" opacity="0.1"/></g><g opacity="0.2"><path d="M539.37,751.79A19,19,0,0,1,539,755q-10.44-1.66-21-3c0-.28,0-.57,0-.86a16.88,16.88,0,0,1,2.5-8.48c2.06-3.26,5.19-5.3,8.64-5.19s6.44,2.34,8.29,5.71A16.87,16.87,0,0,1,539.37,751.79Z" transform="translate(-11.09 -87.76)" fill="#3f3d56"/><ellipse cx="529.21" cy="734.33" rx="14.01" ry="10.7" transform="translate(-232.53 1152.36) rotate(-88.19)" fill="#3f3d56"/><ellipse cx="529.75" cy="717.21" rx="14.01" ry="10.7" transform="translate(-214.89 1136.32) rotate(-88.19)" fill="#3f3d56"/><ellipse cx="530.29" cy="700.09" rx="14.01" ry="10.7" transform="translate(-197.26 1120.28) rotate(-88.19)" fill="#3f3d56"/><ellipse cx="530.83" cy="682.97" rx="14.01" ry="10.7" transform="translate(-179.63 1104.24) rotate(-88.19)" fill="#3f3d56"/><path d="M494.47,564.55a49.66,49.66,0,0,1,-3.8000000000000114,-6l28.260000000000048,-3.730000000000018l-30.420000000000016,-0.7300000000000182a51.38,51.38,0,0,1,0.3100000000000023,-40.639999999999986l40.120000000000005,22.450000000000045l-36.75,-28.839999999999975a51.28,51.28,0,1,1,82.84000000000003,59.99999999999994a50.8,50.8,0,0,1,5.5499999999999545,9.529999999999973l-37.09000000000003,17.799999999999955l39.33000000000004,-11.830000000000041a51.34,51.34,0,0,1,-9.82000000000005,47.910000000000196a51.28,51.28,0,1,1,-80.56,-2.5399999999999636a51.28,51.28,0,0,1,2,-63.379999999999995Z" transform="translate(-11.09 -87.76)" fill="#02818f"/><path d="M585.0000000000001,599.13a51,51,0,0,1,-12,31.340000000000032a51.28,51.28,0,1,1,-80.56000000000017,-2.5399999999999636c-6.569999999999936,-8.930000000000064,92.74000000000001,-34.55000000000007,92.56000000000017,-28.800000000000068Z" transform="translate(-11.09 -87.76)" opacity="0.1"/></g><g opacity="0.2"><path d="M954.57,762.73a37.3,37.3,0,0,1-.73,6.08q-20.1-3.21-40.49-5.74c0-.54,0-1.09,0-1.65a32.5,32.5,0,0,1,4.82-16.33c4-6.27,10-10.2,16.63-10s12.4,4.51,16,11A32.53,32.53,0,0,1,954.57,762.73Z" transform="translate(-11.09 -87.76)" fill="#3f3d56"/><ellipse cx="935" cy="729.11" rx="26.98" ry="20.61" transform="translate(165.69 1552.9) rotate(-88.19)" fill="#3f3d56"/><ellipse cx="936.04" cy="696.15" rx="26.98" ry="20.61" transform="translate(199.64 1522.02) rotate(-88.19)" fill="#3f3d56"/><ellipse cx="937.08" cy="663.2" rx="26.98" ry="20.61" transform="translate(233.59 1491.14) rotate(-88.19)" fill="#3f3d56"/><ellipse cx="938.12" cy="630.24" rx="26.98" ry="20.61" transform="matrix(0.03, -1, 1, 0.03, 267.53, 1460.26)" fill="#3f3d56"/><path d="M868.12,402.27a99.27,99.27,0,0,1,-7.309999999999945,-11.529999999999973l54.39999999999998,-7.180000000000007l-58.549999999999955,-1.410000000000025a98.9,98.9,0,0,1,0.5800000000000409,-78.24000000000001l77.25,43.20999999999998l-70.74000000000012,-55.519999999999925a98.72,98.72,0,1,1,159.47000000000003,115.56a98.71,98.71,0,0,1,10.690000000000055,18.350000000000023l-71.41000000000008,34.289999999999964l75.71000000000004,-22.80000000000001a98.75,98.75,0,0,1,-18.83000000000004,92.14999999999998a98.72,98.72,0,1,1,-155.10000000000002,-4.889999999999986a98.75,98.75,0,0,1,3.840000000000032,-122Z" transform="translate(-11.09 -87.76)" fill="#02818f"/><path d="M1042.42,468.83a98.34,98.34,0,0,1-23,60.34,98.72,98.72,0,1,1-155.1-4.89C851.58,507.07,1042.77,457.76,1042.42,468.83Z" transform="translate(-11.09 -87.76)" opacity="0.1"/></g><polygon points="157.82 676.73 168.31 676.7 183.1 676.7 201.8 372.92 386.99 63.89 378.94 55.25 378.94 33.37 178.66 365.76 157.82 676.73" fill="#f1c0c0"/><polygon points="169.43 676.7 183.1 676.7 201.8 372.92 386.99 63.89 378.94 55.25 187.92 368.29 169.43 676.7" opacity="0.1"/><polygon points="126.91 679.26 606.76 715.98 607.17 716.01 1071.56 687.45 1071.91 687.43 1071.91 667.82 560.21 658.43 133.3 658.02 130.18 658.02 129.84 660.22 126.91 679.26" fill="#f1c0c0"/><polygon points="126.91 679.26 606.76 715.98 607.17 716.01 1071.56 687.45 1071.91 687.07 1071.91 668.23 1071.5 668.23 606.76 683.75 133.3 658.02 133.23 658.02 132.39 658.57 129.84 660.22 126.91 679.26" opacity="0.1"/><polygon points="126.91 679.26 606.76 715.98 606.76 683.75 132.39 658.57 129.84 660.22 126.91 679.26" opacity="0.1"/><polygon points="378.88 54.84 590.43 281.9 583.89 681.3 601.86 683.47 602.16 683.51 620.13 683.51 622.28 299.05 1018.41 431.37 1025.09 666.97 1039.55 668.59 1044.45 669.14 1033.11 415.03 619.01 269.65 391.95 33.6 378.88 33.6 378.88 54.84" fill="#f1c0c0"/><polygon points="620.65 291.7 622.28 299.05 1018.41 431.37 1025.09 666.97 1039.55 668.59 1028.21 426.47 620.65 291.7" opacity="0.1"/><polygon points="378.88 54.84 590.43 281.9 583.89 681.3 601.86 683.47 606.76 268.83 378.88 33.6 378.88 54.84" opacity="0.1"/><polygon points="621.42 451.99 766.71 480.6 766.76 480.61 1021.23 530.74 1032.88 526.07 1032.84 525.25 1032.08 509 621.57 426.05 621.42 451.99" fill="#f1c0c0"/><polygon points="766.76 480.61 1021.23 530.74 1032.88 526.07 1032.84 525.25 766.76 480.61" opacity="0.1"/><polygon points="776.49 350.56 780.42 566.9 782.45 677.89 800.34 677.29 811.6 676.91 808.1 353.69 800.34 351.11 798.64 350.56 776.49 350.56" fill="#f1c0c0"/><polygon points="776.65 350.51 776.65 350.56 780.42 566.9 782.45 677.89 800.34 677.29 800.34 350.51 776.65 350.51" opacity="0.1"/><path d="M507.35,493.57a22.79,22.79,0,0,1,3,1.95,19.85,19.85,0,0,1,3,3.29c4.29,5.55,8.25,12,7.83,19a7.73,7.73,0,0,1-2.23,5.5c-1.77,1.51-4.31,1.58-6.63,1.58-2.52,0-5.17,0-7.35-1.3s-4-3.83-6.58-3.77a3.37,3.37,0,0,1-1.1,0c-.89-.29-1.07-1.46-1.65-2.2-1-1.33-3.11-1-4.68-.42s-3.31,1.45-4.86.78a5.05,5.05,0,0,1-2.11-2.11c-3.71-6-4.5-13.21-5.2-20.18-.43-4.24-3.71-18.7,5.34-15.41,4,1.44,7.74,4.32,11.38,6.43Z" transform="translate(-11.09 -87.76)" fill="#3f3d56"/><path d="M498.41,495a4.46,4.46,0,0,0,5.49-.22,8.27,8.27,0,0,0,2.67-5.18c1-.31,1.51,1,2.15,1.8,1.12,1.36,3.4,1.34,4.42,2.79.71,1,.55,2.39,1.05,3.52.65,1.46,2.26,2.22,3.36,3.4a11.58,11.58,0,0,1,2.2,4.39l1.64,4.92a24.32,24.32,0,0,1,1.5,6.37,8.25,8.25,0,0,1-1.9,6.09c-2.2,2.37-5.81,2.62-9,2.55a11.58,11.58,0,0,1-3.16-.37c-2.83-.88-4.64-3.73-5.39-6.6s-.67-5.88-1.11-8.82a34.57,34.57,0,0,0-2.5-8.38c-.88-2.08-3.3-5.18-3.26-7.39C497.29,493.87,497.81,494.53,498.41,495Z" transform="translate(-11.09 -87.76)" fill="#3f3d56"/><path d="M502,484.87a16.51,16.51,0,0,1-.81-4.39c0-3,1.37-5.82,2.75-8.5l-11.43,1.55c-1.38.19-2.92.47-3.7,1.62a4,4,0,0,0,0,3.69,18.86,18.86,0,0,1,1.36,3.57,17.83,17.83,0,0,0,.37,3.21,6.8,6.8,0,0,0,1.47,2.07c3.27,3.62,5.72,7.89,8.16,12.12-.07-.12,6.89-5.51,6.61-7.27-.16-1-2.17-2.2-2.81-3.16A16.09,16.09,0,0,1,502,484.87Z" transform="translate(-11.09 -87.76)" fill="#be6f72"/><polygon points="588.91 358.04 588.91 367.89 420.24 400.79 411.49 406.09 381.3 406.09 381.3 400.54 547.02 360.5 588.91 358.04" fill="#f1c0c0"/><polygon points="588.91 367.89 420.24 400.79 411.49 406.09 381.3 406.09 548.25 370.36 588.91 367.89" opacity="0.1"/><path d="M464.58,725.42a13.07,13.07,0,0,0,-15.899999999999977,-3.3799999999999955a4.19,4.19,0,0,0,-1.4599999999999795,1.1399999999999864c-1,1.3999999999999773,-0.36000000000001364,3.330000000000041,-0.2699999999999818,5.059999999999945c0.2300000000000182,4.220000000000027,-3.1299999999999955,7.649999999999977,-6.149999999999977,10.600000000000023c-1.6200000000000045,1.580000000000041,-3.269999999999982,3.269999999999982,-4,5.419999999999959s-0.18999999999999773,4.8799999999999955,1.7699999999999818,6a7.37,7.37,0,0,0,2.740000000000009,0.7599999999999909a29.57,29.57,0,0,0,9.699999999999989,0.2699999999999818c3.1899999999999977,-0.6100000000000136,6.319999999999993,-2.419999999999959,7.699999999999989,-5.360000000000014a5.65,5.65,0,0,1,1.2899999999999636,-2.1299999999998818c1.759999999999991,-1.3899999999999864,4.4599999999999795,0.2400000000000091,6.4599999999999795,-0.75c1.6499999999999773,-0.82000000000005,1.7200000000000273,-2.1100000000000136,1.740000000000009,-3.8099999999999454c0.060000000000002274,-4.7000000000000455,-0.6399999999999864,-10.019999999999982,-3.6200000000000045,-13.82000000000005Z" transform="translate(-11.09 -87.76)" fill="#02818f"/><path d="M488.58000000000004,725.24c1.2300000000000182,3.240000000000009,1.3999999999998636,6.769999999999982,1.5599999999999454,10.230000000000018c0.08999999999991815,2,0.14999999999997726,4.139999999999986,-0.9300000000000637,5.830000000000041s-3.189999999999941,2.580000000000041,-5.209999999999923,3c-4.169999999999959,0.8600000000000136,-9,0.049999999999954525,-11.68999999999994,-3.259999999999991c-2.060000000000059,-2.5299999999999727,-2.490000000000009,-6,-2.1100000000000705,-9.279999999999973c0.3199999999999932,-2.6900000000000546,1,-5.840000000000032,-0.9300000000000068,-7.75c-0.5,-0.5099999999999909,-1.1499999999999773,-0.8700000000000045,-1.6100000000000136,-1.419999999999959c-1,-1.2200000000000273,-0.8399999999999181,-3.0599999999999454,-0.2999999999999545,-4.559999999999945a19.81,19.81,0,0,0,1.5699999999999363,-4.509999999999991c0.07999999999992724,-0.7400000000000091,13.539999999999964,0.5199999999999818,14.779999999999973,1.1299999999999955c1.6900000000000546,0.8300000000000409,1.4300000000000637,2.2200000000000273,1.9400000000000546,3.8999999999999773c0.7100000000000364,2.3399999999998045,2.07000000000005,4.449999999999818,2.9300000000000637,6.689999999999827Z" transform="translate(-11.09 -87.76)" fill="#02818f"/><path d="M491.05,581.58c2.64,1.71,3.66,5.07,4.07,8.19,1.13,8.55-.85,17.19-1,25.82-.14,12.09,3.36,24.4.37,36.11-1.79,7-.27,15-1.95,22.07-.5,2.1-1.42,4.08-1.9,6.18-1,4.55.05,9.31,1.46,13.76a14.21,14.21,0,0,1,.85,3.73,13.42,13.42,0,0,1-1.46,5.64l-6,14.19c-.67,1.59-3.31,1.85-5,2.06-3.18.38-6.73.65-9.26-1.32s-3.14-5.27-3.53-8.35a128,128,0,0,1-1-17.83,14.69,14.69,0,0,0-.41-4.63c-.55-1.71-1.76-3.19-2.09-5-.42-2.34.77-4.64,1.21-7a21.09,21.09,0,0,0-.1-6.49c-.39-3.2-.84-6.4-1.35-9.58-.72-4.45.31-8.84,1-13.3.65-4.19-.18-8.46-1-12.62a34.79,34.79,0,0,1-1.25,10c-.53,1.59-1.29,3.11-1.75,4.73-2.05,7.27,2.32,14.9,1.7,22.43-.29,3.52-1.67,7-1.28,10.47.27,2.54,1.45,4.87,2.26,7.29s1.23,5.19,0,7.45c-3.25,6.14-.82,14.49,2.09,20.79a28.06,28.06,0,0,1,1.54,3.46c.86,2.84.14,5.89.37,8.85a5.58,5.58,0,0,1-4.69-1.41c-.44-.46-.8-1-1.23-1.48a12.21,12.21,0,0,0-4.18-2.61,5.49,5.49,0,0,0-3-.69,6,6,0,0,0-2.85,1.77,27.94,27.94,0,0,1-3.14,2.39,3.72,3.72,0,0,1-1.6.71,1.41,1.41,0,0,1-1.47-.75,1.78,1.78,0,0,1-.11-.52,79.14,79.14,0,0,1-.59-9.1c0-5.23-6.26-8.83-7.05-14-.63-4.17.54-8.42.15-12.62-.19-2.16-.79-4.28-.75-6.44,0-1.4.32-2.77.43-4.16a31.12,31.12,0,0,0-.07-4.63l-.31-4.83c-.3-4.77-.63-9.64-2.51-14a47.57,47.57,0,0,1-3.9-16.08c-.2-3.5-.07-7-.47-10.51-.36-3.17-1.16-6.32-.93-9.5.19-2.46,1-4.84,1.19-7.3.39-4.73-1.41-9.33-2.82-13.86s-2.45-9.55-.6-13.92a4.57,4.57,0,0,1,1.28-1.86,5.58,5.58,0,0,1,2.36-.88A183.11,183.11,0,0,1,483,579.07,17.34,17.34,0,0,1,491.05,581.58Z" transform="translate(-11.09 -87.76)" fill="#3f3d56"/><circle cx="423.19" cy="371.59" r="16.02" fill="#be6f72"/><path d="M431.18,479.36a5.72,5.72,0,0,1,0,2.79,6.32,6.32,0,0,1-1.05,1.76,45.2,45.2,0,0,1-5.13,5.58,9.29,9.29,0,0,0,4.79,4.73,27.81,27.81,0,0,0,6.61,1.89,9.32,9.32,0,0,0,3.48.24,9.23,9.23,0,0,0,3-1.36l8.9-5.33a17.78,17.78,0,0,0,3.7-2.67,9.11,9.11,0,0,0,2.58-6.26,1.72,1.72,0,0,0-.32-1.18,2.1,2.1,0,0,0-1.22-.51c-3.13-.69-5.6-3.23-7-6.11a32.36,32.36,0,0,1-2.43-9.27l-9.49,5c-1.41.75-2.81,1.5-4.27,2.15-.93.42-2.81.77-3.47,1.62C428.6,474,430.85,477.47,431.18,479.36Z" transform="translate(-11.09 -87.76)" fill="#be6f72"/><path d="M425.06,486.58a10.55,10.55,0,0,0-3.07,4.15c-.62,2,0,4.11.56,6.09a181.7,181.7,0,0,1,6,25.79c.84,6,1.15,12.09,1.56,18.16.84,12.38,2.06,32.12,3.69,44.42,6,.27,11.85-1.48,17.8-2.12,11.12-1.18,22.57,1.52,33.46-1-2.64-10.43-5.28-28.24-7.92-38.66a73.77,73.77,0,0,1-2.42-12.55c-.23-3.05-.09-6.11-.05-9.18.09-6-.24-12-.57-18-.38-7-.76-14-2.42-20.85a3.88,3.88,0,0,0-1.16-2.29c-1-.73-2.3-.47-3.49-.31a15.18,15.18,0,0,1-10.38-2.46c-1.32-.9-3.09-2-4.32-1a4.3,4.3,0,0,0-1,2.13,10.65,10.65,0,0,1-6.26,6.17,31.33,31.33,0,0,1-8.86,1.82,4.35,4.35,0,0,1-2.75-.31c-1.42-.87-1.52-4-3.31-4.21C428.58,482.19,426.12,485.57,425.06,486.58Z" transform="translate(-11.09 -87.76)" fill="#3f3d56"/><path d="M448.72,511c-3.6899999999999977,-3.5299999999999727,-5.310000000000002,-8.649999999999977,-8,-13a28.94,28.94,0,0,0,-6.910000000000025,-7.600000000000023a20.61,20.61,0,0,1,-3.759999999999991,-3.1899999999999977c-0.9499999999999886,-1.170000000000016,-1.670000000000016,-2.730000000000018,-3.1100000000000136,-3.180000000000007a3.7600000000000002,3.7600000000000002,0,0,0,-3.3700000000000045,0.9300000000000068a33.16,33.16,0,0,0,-2.5,2.660000000000025c-4.240000000000009,4.389999999999986,-11.689999999999998,5,-15.050000000000011,10.079999999999984a8.26,8.26,0,0,0,-1.7900000000000205,3.75a29.06,29.06,0,0,0,5.339999999999975,20.900000000000034a7.1,7.1,0,0,0,3.6999999999999886,3a11.58,11.58,0,0,0,0.7200000000000273,5.5a147.07,147.07,0,0,0,6.810000000000002,18.549999999999955a44.87,44.87,0,0,0,-1.339999999999975,7.190000000000055c-0.6999999999999886,6.110000000000014,-0.05000000000001137,12.309999999999945,-0.7099999999999795,18.42999999999995c-0.5400000000000205,5,-2,9.870000000000005,-2.0500000000000114,14.879999999999995c0,0.7999999999999545,0.06999999999999318,1.75,0.7599999999999909,2.159999999999968a2.3,2.3,0,0,0,1.1899999999999977,0.25l12.300000000000011,0.37000000000000455c7.139999999999986,0.21000000000003638,14.350000000000023,0.4199999999999591,21.379999999999995,-0.8999999999999773a8.9,8.9,0,0,0,2.6899999999999977,-0.8500000000000227c2.3799999999999955,-1.330000000000041,3.170000000000016,-4.330000000000041,3.5500000000000114,-7a61,61,0,0,0,0.589999999999975,-10.460000000000036c1.490000000000009,4.710000000000036,3.259999999999991,9.580000000000041,7.759999999999991,11.620000000000005c2.3799999999999955,1.080000000000041,5.100000000000023,1,7.7099999999999795,0.92999999999995a145.16,145.16,0,0,0,16.79000000000002,-1.7300000000000182a2.21,2.21,0,0,0,2.4499999999999886,-2.57000000000005l0.060000000000002274,-5.460000000000036c0.12000000000000455,-11.090000000000032,-2.6299999999999955,-21.690000000000055,-3.6999999999999886,-32.73000000000002c-0.339999999999975,-3.480000000000018,-0.3100000000000023,-7,-1.160000000000025,-10.409999999999968c-0.35000000000002274,-1.42999999999995,-0.8600000000000136,-2.830000000000041,-1.170000000000016,-4.269999999999982a30.52,30.52,0,0,1,-0.5,-4.269999999999982l-0.7799999999999727,-11c-0.37000000000000455,-5.089999999999975,-0.8999999999999773,-10,-1.2900000000000205,-15.079999999999984a73,73,0,0,0,-2.1399999999999864,-14.660000000000025c-0.8700000000000045,-3,-2.680000000000007,-6.399999999999977,-5.810000000000002,-6.769999999999982c-1.670000000000016,-0.18999999999999773,-3.2900000000000205,0.5400000000000205,-4.8799999999999955,1.0500000000000114a19.72,19.72,0,0,1,-12,-0.05000000000001137a16.9,16.9,0,0,0,-3.740000000000009,-1a3.67,3.67,0,0,0,-3.420000000000016,1.420000000000016a5.13,5.13,0,0,0,-0.5299999999999727,2.519999999999982c-0.46999999999997044,9.99000000000018,-1.3399999999999181,20.2800000000002,-4.089999999999918,29.99000000000018Z" transform="translate(-11.09 -87.76)" fill="#02818f"/><path d="M432.63,511.3c-4.61-4.86-9.34-9.81-15.28-12.9-2.34-1.22-5-2.14-7.59-1.68s-5,2.71-4.88,5.34c.08,1.63,1.07,3.07,1.38,4.67.36,1.8-.16,3.72.4,5.46a9.24,9.24,0,0,0,2,3.07l7.08,8.39c3,3.5,6,7.05,9.86,9.47s8.86,3.55,13.1,1.83a16.1,16.1,0,0,0,7.18-6.59c1.76-2.8,3-5.86,4.65-8.75a43.45,43.45,0,0,1,10-12.13c-2.08-.54-4.69-1.3-6-3a9.91,9.91,0,0,1-.95-1.72l-1.62-3.5a4,4,0,0,0-3,1.13,25.16,25.16,0,0,1-2.23,2.27c-1.41,1.06-3.32,1.35-4.6,2.56a12.19,12.19,0,0,0-1.34,1.68A11.22,11.22,0,0,1,432.63,511.3Z" transform="translate(-11.09 -87.76)" fill="#3f3d56"/><path d="M460.9,490.39c3.47-6.33,3.31-13.92,4.3-21.07a9.62,9.62,0,0,1,1.91-5.23c2-2.26,5.53-2.29,8.55-2,.89.1,2,.52,1.95,1.41a1.8,1.8,0,0,1-.45.85,23.79,23.79,0,0,0-4.94,13.12c1.57,1.09,4-1.15,5.51,0,1,.84.54,2.5-.06,3.7q-2.09,4.17-4.31,8.28a26.59,26.59,0,0,1-4.57,6.59c-1.27,1.22-2.76,2.18-4.05,3.38-3,2.81-4.81,6.78-7.91,9.52a1.62,1.62,0,0,1-1,.51,1.68,1.68,0,0,1-1.05-.47,15.16,15.16,0,0,1-3.78-4.57c-1.18-2.18-1-2.82.86-4.36C455.34,497.3,458.73,494.35,460.9,490.39Z" transform="translate(-11.09 -87.76)" fill="#be6f72"/><path d="M426.83,507c0.6000000000000227,0.37000000000000455,1.339999999999975,0.7900000000000205,2,0.4800000000000182a2.08,2.08,0,0,0,0.6700000000000159,-0.6499999999999773a23.54,23.54,0,0,0,2.839999999999975,-4.939999999999998a1.9,1.9,0,0,0,0.20999999999997954,-0.8000000000000114c0,-0.6399999999999864,-0.5699999999999932,-1.1100000000000136,-1.1000000000000227,-1.4800000000000182a40.76,40.76,0,0,0,-9.089999999999975,-4.319999999999993c-2.6399999999999864,-1,-5.399999999999977,-1.8700000000000045,-8.199999999999989,-1.6200000000000045a7.82,7.82,0,0,0,-5.470000000000027,2.7799999999999727c-2,2.569999999999993,1.3500000000000227,3.3500000000000227,3.4499999999999886,4.279999999999973c4.8600000000000705,2.2100000000000364,10.120000000000061,3.490000000000066,14.690000000000055,6.270000000000039Z" transform="translate(-11.09 -87.76)" fill="#02818f"/><path d="M423.68,524a1.47,1.47,0,0,0,.42,1.26c.29-1.42-.09-2.92.21-4.35.44-2.15,2.53-3.77,2.71-5.93C423.19,514.23,423.71,521.68,423.68,524Z" transform="translate(-11.09 -87.76)" opacity="0.1"/><polygon points="588.91 358.04 588.91 367.89 548.25 370.36 547.02 360.5 588.91 358.04" opacity="0.2"/><path d="M419.86,461.73c2.54-2.07,1.07-6.41,2.79-9.19,1-1.52,2.69-2.32,4.35-3a19.79,19.79,0,0,1,6.35-1.76,7.37,7.37,0,0,1,6,2.21c.65.74,1.09,1.64,1.7,2.41a6.5,6.5,0,0,0,6.3,2.18c1.33-.3,2.71-1.31,2.62-2.67a3.77,3.77,0,0,0-1.2-2.14l-2.86-3.17c-3.25-3.6-6.86-7.42-11.63-8.32-3.32-.63-6.72.26-9.92,1.33-1.29.43-2.74,1.07-3.1,2.38-.24.9.12,1.88-.09,2.79-.41,1.81-2.73,2.42-3.81,3.94s-.75,3.32-1.06,5-1.21,3.32-1.32,5.06c-.07,1.05.46,3,1.64,3.38S419.13,460.48,419.86,461.73Z" transform="translate(-11.09 -87.76)" fill="#3f3d56"/><path d="M449,450.47a30,30,0,0,0-5.32-12.16,21.31,21.31,0,0,0-9.47-7.52,13.56,13.56,0,0,0-11.79.93,17.12,17.12,0,0,0-5.89,7.43c-2.59,5.58-3.55,12.4-.54,17.76,1.2-1.46,3.26-.8,5.08-1.33,2.28-.65,4.21-2.17,6.38-3.12C434,449.57,442,451.91,449,450.47Z" transform="translate(-11.09 -87.76)" fill="#fed253"/><path d="M417.52,450.16c-.23-1.8-.38-3.89.9-5.17a.65.65,0,0,1,.53-.24.69.69,0,0,1,.41.36,22.38,22.38,0,0,1,1.88,3.68,3.82,3.82,0,0,0-4,1.55" transform="translate(-11.09 -87.76)" opacity="0.1"/><path d="M440.89,445.08l-.36-3.57a1.63,1.63,0,0,1,.07-.88,1.13,1.13,0,0,1,1.46-.4,3,3,0,0,1,1.17,1.17,21,21,0,0,1,2.06,4.07,12.1,12.1,0,0,0-4.87.06" transform="translate(-11.09 -87.76)" opacity="0.1"/><polygon points="438.75 502.21 438.75 510.37 431.86 510.83 395.62 510.83 395.62 502.21 438.75 502.21" opacity="0.1"/><polygon points="438.75 502.21 438.75 510.83 395.62 510.83 281.04 367.3 281.04 360.52 305.06 360.52 438.75 502.21" fill="#f1c0c0"/><polygon points="438.75 502.21 438.75 510.83 395.62 510.83 281.04 367.3 281.04 360.52 305.06 360.52 438.75 502.21" opacity="0.1"/><polygon points="438.75 502.21 438.75 510.83 395.62 510.83 281.04 367.3 281.04 360.52 396.24 502.21 438.75 502.21" opacity="0.1"/><path d="M307.15,733.83a3,3,0,0,1,-2.6200000000000045,3.5299999999999727c-2.7799999999999727,0.9400000000000546,-5.730000000000018,1.8700000000000045,-7.699999999999989,4s-2.3600000000000136,6.080000000000041,0,7.809999999999945a7.59,7.59,0,0,0,4,1.0900000000000318c4.529999999999973,0.30999999999994543,9.25,0.25,13.360000000000014,-1.669999999999959c2.9399999999999977,-1.3600000000000136,5.7099999999999795,-3.67999999999995,8.939999999999998,-3.4700000000000273c1.670000000000016,0.10000000000002274,3.4499999999999886,0.8799999999999955,4.939999999999998,0.12000000000000455s1.910000000000025,-2.8799999999999955,1.920000000000016,-4.649999999999977a34.43,34.43,0,0,0,-1.6499999999999773,-10.889999999999986c-0.14999999999997726,-0.4800000000000182,-6.509999999999991,-0.8500000000000227,-7.269999999999982,-1l-7.7099999999999795,-1c-1.4599999999999795,-0.19000000000005457,-4.610000000000014,-1.2899999999999636,-5.759999999999991,-0.07000000000005002s-0.4500000000001023,4.75,-0.4500000000001023,6.2000000000000455Z" transform="translate(-11.09 -87.76)" fill="#02818f"/><path d="M353.16,708.87a24.15,24.15,0,0,0,1.579999999999984,5.240000000000009c1.0699999999999932,2.7200000000000273,2.4399999999999977,5.610000000000014,5.060000000000002,6.92999999999995c2.3799999999999955,1.1900000000000546,5.300000000000011,0.7599999999999909,7.720000000000027,-0.37000000000000455a6.36,6.36,0,0,0,2.569999999999993,-1.9500000000000455a7.74,7.74,0,0,0,1,-4.490000000000009c0,-3.8700000000000045,-0.2300000000000182,-7.8700000000000045,-2,-11.309999999999945c-1.5199999999999818,-3,-4.170000000000016,-5.580000000000041,-4.2099999999999795,-8.899999999999977l-9.110000000000014,1.759999999999991a2.6,2.6,0,0,0,-1.339999999999975,0.5299999999999727a2.31,2.31,0,0,0,-0.5799999999999841,1.0900000000000318a29.77,29.77,0,0,0,-0.6900000000000546,11.470000000000027Z" transform="translate(-11.09 -87.76)" fill="#02818f"/><path d="M244.37,613.87c-0.37999999999999545,3.2200000000000273,-0.21999999999999886,6.669999999999959,1.460000000000008,9.450000000000045s5.219999999999999,4.6200000000000045,8.280000000000001,3.509999999999991a1.21,1.21,0,0,0,0.75,-0.57000000000005a1.4100000000000001,1.4100000000000001,0,0,0,-0.12999999999999545,-1a14.76,14.76,0,0,1,0.3100000000000023,-11.120000000000005c0.19999999999998863,-0.4600000000000364,0.6299999999999955,-1,1.1000000000000227,-0.82000000000005a1,1,0,0,1,0.44999999999998863,0.4600000000000364a5.23,5.23,0,0,1,0.6999999999999886,2.759999999999991a10.26,10.26,0,0,0,-0.07999999999998408,2.6499999999999773c0.18999999999999773,0.8600000000000136,1.1100000000000136,1.669999999999959,1.910000000000025,1.2999999999999545a2,2,0,0,0,0.910000000000025,-1.2899999999999636c2.230000000000018,-6.4500000000000455,1.2200000000000273,-13.5,0.19999999999998863,-20.25a1.06,1.06,0,0,0,-1.1899999999999977,-1.1100000000000136c-4.719999999999999,-0.4700000000000273,-7.300000000000011,-1.6000000000000227,-10,2.7899999999999636c-2.3200000000000784,3.700000000000159,-4.670000000000073,8.790000000000077,-4.670000000000073,13.240000000000123Z" transform="translate(-11.09 -87.76)" fill="#02818f"/><path d="M299.55,597.46c-1.4,5.82-2.81,11.71-2.9,17.69a81.27,81.27,0,0,0,.84,11.13l1.05,8.66c.36,2.92.71,5.83,1.22,8.72a23.15,23.15,0,0,1,.53,4.53,24.26,24.26,0,0,1-.71,4.45,52,52,0,0,0-1.05,9.3c-.11,5,.51,10,.9,15a167.05,167.05,0,0,1-.35,29.92,11.22,11.22,0,0,0,1.64,7.71,9.92,9.92,0,0,1,1.45,2.38c.75,2.29-1,4.58-1.45,6.93a7,7,0,0,0,5.82,8c8,.95,16.22.52,23.43,4.18.76-2.22-.9-4.74-.14-7,.48-1.4,1.8-2.31,2.7-3.49a10.16,10.16,0,0,0,1.72-6.1,22.29,22.29,0,0,0-1.48-8.27c-.85-2.2-2.07-4.37-2-6.73,0-1.16.41-2.38-.06-3.45a5.39,5.39,0,0,0-1.29-1.61,20.33,20.33,0,0,1-5.23-11.85,54.58,54.58,0,0,1,.42-13.14c.49-4.14,1.15-8.51,3.78-11.74a75.33,75.33,0,0,1,2.11-29.25c.26-.88.67-1.9,1.57-2.11a2.24,2.24,0,0,1,1.92.76c1.57,1.47,2.32,3.6,3,5.64.75,2.21,1.51,4.57.94,6.83-.24,1-.72,1.88-1,2.84a8.42,8.42,0,0,0,.3,5.87,5.64,5.64,0,0,1,.72,2.21,6.12,6.12,0,0,1-.6,1.92,8.84,8.84,0,0,0,.83,7.15,25.89,25.89,0,0,0,4.67,5.73,21,21,0,0,0,.65,11.56,1.46,1.46,0,0,1,.13,1.11c-.18.38-.64.52-1,.79-1,.82-.38,2.37.29,3.44a78.88,78.88,0,0,0,6.07,8.42c2,2.39,1.82,7,4.8,7.86a9,9,0,0,0,3.8,0c2.94-.45,6.22-1.3,7.66-3.9.59-1.07.83-2.37,1.75-3.17s2.11-.94,2.62-1.9-.06-2.22.11-3.33,1.14-2,1.45-3.17c.74-2.7-2.41-4.92-2.84-7.68-.62-4,4.42-7,4.21-11-.44-8.69-.72-17.42-1.17-26.11a188.26,188.26,0,0,1-.24-23.39c.35-4.85,1-9.93-.78-14.44-2.56-6.36-9.62-9.93-16.45-10.61s-13.64.94-20.41,2A129,129,0,0,1,299.55,597.46Z" transform="translate(-11.09 -87.76)" fill="#3f3d56"/><circle cx="308.76" cy="398.1" r="16.02" fill="#fbbebe"/><path d="M313.33,504.87A6.83,6.83,0,0,1,306.8,509c-.58,2.4.81,4.82,2.4,6.71a28.48,28.48,0,0,0,27.26,9.35,13.45,13.45,0,0,0,5.37-2.24,11.91,11.91,0,0,0,4.1-7.1,35.3,35.3,0,0,0,.39-8.35,2.16,2.16,0,0,0-.44-1.54,2.2,2.2,0,0,0-1.4-.46c-3.38-.3-6.91-.43-9.88-2.09s-5.08-5.41-3.65-8.49c-.23.48-6.07.71-6.84.81-2.41.34-4.82.72-7.22,1.16a13.13,13.13,0,0,0-3.39.64c-1.45.75-.91.38-.57,1.74C313.44,501.22,314.19,502.71,313.33,504.87Z" transform="translate(-11.09 -87.76)" fill="#fbbebe"/><path d="M325.52,514.61a26.53,26.53,0,0,1-6.41-.71,9,9,0,0,1-5.26-3.51c-.74-1.12-1.22-2.53-2.4-3.16-1.93-1-4.13.69-5.67,2.24a20.6,20.6,0,0,1-4.82,3.88c-2.14,1.13-4.64,1.53-6.66,2.86a16.74,16.74,0,0,0-4,4.32l-14.17,19.3c-5.69,7.76-10.64,16.09-15.71,24.28-4.39,7.09-6.69,15.25-10,22.9a2.56,2.56,0,0,0-.31,1.54c.12.52.75.94,1.19.64-1.49,1.48-.18,4-.53,6.08a7.46,7.46,0,0,1-2.38,3.73,18.8,18.8,0,0,1,6.6.31,20.23,20.23,0,0,1,6.24,3c1.21-.19,1.1-2.34,2-3.14.54-.47,1.34-.41,2.05-.55,2.67-.52,3.73-3.73,5.78-5.54,1.71-1.51,4.13-2,5.94-3.42,2.94-2.31,3.57-6.42,5.11-9.83,1.31-2.89,3.37-5.41,4.52-8.37.75-1.92,1.11-4,2.18-5.77,1.71-2.86,4.93-4.38,8-5.75,1.94-.87,4-1.77,6.09-1.63-.11,4.65-.7,9.23.31,13.77.35,1.6.84,3.16,1.26,4.75,1.91,7.16,2.36,14.62,2.45,22a66.94,66.94,0,0,1,14-1.68c3.71-.11,7.41.37,11.12.3,4.4-.08,8.75-.93,13.15-1.23s9,0,12.89,2a122.46,122.46,0,0,1,.53-19l1.06-9.94A61.07,61.07,0,0,1,361,560.7c.58-2.28,1.42-4.48,2.06-6.75,2.25-8,1.84-16.54,1.41-24.87-.22-4.28-1.87-8.49-3.81-12.3a33.29,33.29,0,0,0-2.4-4.08A23.63,23.63,0,0,0,337.6,503a4.18,4.18,0,0,0-1.48.32,4.93,4.93,0,0,0-1.89,2.25A24.5,24.5,0,0,1,325.52,514.61Z" transform="translate(-11.09 -87.76)" fill="#3f3d56"/><path d="M305.76,491.17c.45-1,1.66-1.37,2.4-2.17,1.42-1.52.78-3.95,1-6,.36-3,2.85-5.51,5.7-6.58a18.42,18.42,0,0,1,9-.57,8.71,8.71,0,0,1,4.06,1.35c.52.38,1,.87,1.49,1.22a4,4,0,0,0,5.44-1.27c-3.54-4.26-7.46-8.76-12.84-10.07a26.34,26.34,0,0,0-5.61-.53c-2.49-.05-5.06-.09-7.36.86-3.13,1.29-5.33,4.26-6.46,7.46a36.27,36.27,0,0,0-1.57,10,37.67,37.67,0,0,0,0,6.8,18.8,18.8,0,0,0,3.34,8.57,2.59,2.59,0,0,0,1,.93C309.91,503.17,305.39,492,305.76,491.17Z" transform="translate(-11.09 -87.76)" fill="#3f3d56"/><path d="M334.33,474.68c-.55-4.71-3.91-8.6-7.48-11.73a27.58,27.58,0,0,0-10.05-6.05c-3.77-1.11-8.11-.87-11.34,1.38-2.6,1.81-4.25,4.69-5.52,7.59a23.89,23.89,0,0,0-2.41,11c.25,3.78,2.09,7.61,5.37,9.52,1.18-1.74,3.23-2.64,5.2-3.35A254.61,254.61,0,0,1,334.33,474.68Z" transform="translate(-11.09 -87.76)" fill="#fed253"/><path d="M304,472.72c.32,0,.53.33.69.6a25.35,25.35,0,0,1,2.09,4c-1.17.25-3.18.53-3.76-.5C302.71,476.3,303.08,472.67,304,472.72Z" transform="translate(-11.09 -87.76)" opacity="0.1"/><path d="M326.79,470.46c-.24.23-.52-.24-.52-.58V466a.57.57,0,0,1,.07-.31.47.47,0,0,1,.33-.16c.81-.09,1.48.6,2,1.26a21.12,21.12,0,0,1,2.05,3.41l-4.23-.13" transform="translate(-11.09 -87.76)" opacity="0.1"/><path d="M379.58,534.71a26.17,26.17,0,0,1,2.94-2.41c2.77-1.85,6.12-2.58,9.23-3.76s6.27-3.09,7.48-6.19a14.7,14.7,0,0,0,.58-6,6,6,0,0,0-.44-2.47,4.91,4.91,0,0,0-1.58-1.72c-4.22-3.12-9.88-3.37-15.12-3.05a94.77,94.77,0,0,0-33.41,8.34,2.9,2.9,0,0,0-1.4,1,2.86,2.86,0,0,0-.27,1.39,23,23,0,0,0,1.13,8.71c1.38,3.56,4.22,6.43,5.41,10.06.54,1.63.72,3.36,1.19,5a7,7,0,0,0,2.81,4.18c3.95,2.36,7.68-.81,10.42-3.27Z" transform="translate(-11.09 -87.76)" fill="#3f3d56"/><path d="M327.85,548.56l-5.069999999999993,-11.059999999999945a38.71,38.71,0,0,1,-1.920000000000016,-4.730000000000018c-0.5799999999999841,-1.92999999999995,-0.8600000000000136,-3.92999999999995,-1.3999999999999773,-5.8700000000000045c-1.7799999999999727,-6.460000000000036,-6.269999999999982,-11.840000000000032,-8.45999999999998,-18.170000000000016a3.45,3.45,0,0,0,-0.8199999999999932,-1.5299999999999727a2.67,2.67,0,0,0,-2.230000000000018,-0.39999999999997726c-3.0600000000000023,0.5299999999999727,-5.449999999999989,2.8600000000000136,-8.25,4.180000000000007c-1.3000000000000114,0.6000000000000227,-2.6999999999999886,1,-4,1.6900000000000546a5,5,0,0,0,-2.680000000000007,3.1900000000000546c-0.3100000000000023,1.5299999999999727,0.44999999999998863,3,1.089999999999975,4.490000000000009c2.7200000000000273,6.139999999999986,3.339999999999975,13,3.4599999999999795,19.720000000000027c0.08999999999997499,4.519999999999982,-0.13999999999998636,9.370000000000005,-2.8100000000000023,13c-5.1299999999999955,7,-1.8500000000000227,17.279999999999973,0.06999999999999318,25.75c0.2300000000000182,1,0.5,2.080000000000041,0.660000000000025,3.1399999999999864a28.87,28.87,0,0,1,0.2300000000000182,4c0,4.490000000000009,-0.25,9.120000000000005,-2.1299999999999955,13.190000000000055a14.76,14.76,0,0,0,6,1.7000000000000455q8.70999999999998,1.1100000000000136,17.49000000000001,1.5599999999999454a19.06,19.06,0,0,0,5.490000000000009,-0.2799999999999727a10,10,0,0,0,7.389999999999986,-9.799999999999955c0.3199999999999932,2.769999999999982,0.910000000000025,5.779999999999973,2.920000000000016,7.7000000000000455s4.939999999999998,2.2100000000000364,7.670000000000016,2.3600000000000136a142.6,142.6,0,0,0,23.100000000000023,-0.6499999999999773a4,4,0,0,0,1.420000000000016,-0.3300000000000409c1.4800000000000182,-0.7400000000000091,1.5600000000000023,-2.7799999999999727,1.4399999999999977,-4.419999999999959c-0.22000000000002728,-3.07000000000005,-0.44999999999998863,-6.139999999999986,-0.8199999999999932,-9.190000000000055a37.61,37.61,0,0,1,-0.4800000000000182,-5.8799999999999955a33.83,33.83,0,0,1,1,-6c1.339999999999975,-6.240000000000009,2.3999999999999773,-12.610000000000014,1.9499999999999886,-19a32.06,32.06,0,0,1,-0.18999999999999773,-4.690000000000055c0.2599999999999909,-3.5299999999999727,2.1200000000000045,-6.889999999999986,1.7699999999999818,-10.399999999999977c-1,-10.32000000000005,-1.8100000000000023,-20.909999999999968,-4.689999999999998,-30.870000000000005c-0.5199999999999818,-1.7799999999999727,-1.1800000000000068,-3.6899999999999977,-2.730000000000018,-4.7099999999999795c-2,-1.339999999999975,-4.810000000000002,-0.6399999999999864,-7.100000000000023,-1.490000000000009a17.76,17.76,0,0,1,-3.0500000000000114,-1.8100000000000023a14,14,0,0,0,-6.889999999999986,-2.1200000000000045c-1.839999999999975,-0.06999999999999318,-3.8899999999999864,0.339999999999975,-5,1.8199999999999932a7.26,7.26,0,0,0,-1,2.730000000000018c-1.4499999999999886,6.100000000000023,-3.1499999999999773,12.130000000000052,-4.850000000000023,18.160000000000025l-1.6299999999999955,5.779999999999973l-4.3700000000000045,15.519999999999982c-0.4300000000000068,1.6499999999997499,-0.13999999999998636,2.159999999999741,-0.5799999999999841,3.7199999999996862Z" transform="translate(-11.09 -87.76)" fill="#02818f"/><polyline points="342.33 400.25 439.06 501.9 439.06 510.52 395.93 510.52 323.24 415.65" fill="#f1c0c0"/><polyline points="342.33 400.25 439.06 501.9 439.06 510.52 395.93 510.52 323.24 415.65" opacity="0.1"/><polygon points="324.78 414.31 325.09 414.42 396.55 501.9 439.06 501.9 439.06 510.52 395.93 510.52 323.24 415.65 324.78 414.31" opacity="0.1"/><path d="M347,504.21c-3.5,1.5299999999999727,-7.389999999999986,3.490000000000009,-8.439999999999998,7.170000000000016a4.12,4.12,0,0,0,-0.12999999999999545,2a4.08,4.08,0,0,0,3.670000000000016,2.8099999999999454a12,12,0,0,0,4.810000000000002,-0.8799999999999955l20.649999999999977,-6.819999999999993c0.5600000000000023,-0.18000000000000682,1.1999999999999886,-0.44999999999998863,1.339999999999975,-1a1.7200000000000002,1.7200000000000002,0,0,0,-0.19999999999998863,-1c-0.6399999999999864,-1.5600000000000023,-1.2699999999999818,-4.75,-2.6100000000000136,-5.839999999999975c-1.1000000000000227,-0.8799999999999955,-3.2799999999999727,-0.5699999999999932,-4.610000000000014,-0.5500000000000114c-5.119999999999948,0.040000000000020464,-9.92999999999995,2.1100000000000136,-14.479999999999961,4.110000000000014Z" transform="translate(-11.09 -87.76)" fill="#02818f"/><path d="M365.41,509.3a33.21,33.21,0,0,1,10.25,1.59,18.26,18.26,0,0,1,8.49,5.8,6.36,6.36,0,0,1,1.34,2.62c.2,1,3.46,1.6,2.74,2.28,2.19-.35,1.67.68,3.89.66s4.62-.59,5.95-2.36a7.73,7.73,0,0,0,1.17-4.89,8.33,8.33,0,0,0-.66-3.46c-1-2.1-3.3-3.23-5.42-4.2l-17.86-8.17A11.86,11.86,0,0,0,372,498a12.34,12.34,0,0,0-2.91.07L361,499a12.13,12.13,0,0,1,5.53,10.67" transform="translate(-11.09 -87.76)" fill="#3f3d56"/></svg>