<svg xmlns="http://www.w3.org/2000/svg" xmlns:xlink="http://www.w3.org/1999/xlink" id="aa03ddf9-f8f2-4819-a4ce-be9b0a220741" width="574" height="700" data-name="Layer 1" preserveAspectRatio="xMidYMid meet" viewBox="55.029998779296875 139.73971445967516 384.2090148925781 468.5475791372903" ><rect id="svgEditorBackground" width="1119.61" height="699" x="0" y="0" stroke="none" style="fill:none;"/><title>server down</title><g id="e1_group"><path fill="#3d4755" d="M103.43008029229998,301.7240164424c0,77.49788999999998,48.6181,140.20818999999995,108.70072999999996,140.20818999999995" transform="matrix(1, 0, 0, 1, -31.3909, -100.5)"/><path fill="#02818f" d="M212.13081029229994,441.93220644239994c0,-78.36865,54.254999999999995,-141.78355999999997,121.30372000000006,-141.78355999999997" transform="matrix(1, 0, 0, 1, -31.3909, -100.5)"/><path fill="#02818f" d="M142.81440029229998,308.7493264424c0,73.61475999999999,31.002849999999967,133.18287999999995,69.31640999999996,133.18287999999995" transform="matrix(1, 0, 0, 1, -31.3909, -100.5)"/><path fill="#3d4755" d="M212.13081029229994,441.93220644239994c0,-100.13772,62.71030000000002,-181.16787999999997,140.20819,-181.16787999999997" transform="matrix(1, 0, 0, 1, -31.3909, -100.5)"/><path fill="#a8a8a8" d="M189.26298029229997,442.92069644239996s15.415549999999996,-0.4747899999999845,20.061409999999967,-3.7830000000000155s23.713000000000022,-7.258500000000026,24.865530000000035,-1.9527800000000184s23.166709999999966,26.388210000000072,5.7626300000000015,26.528599999999983s-40.43934999999999,-2.7110000000000127,-45.076269999999994,-5.535489999999982s-5.6133000000000095,-15.257329999999968,-5.6133000000000095,-15.257329999999968Z" transform="matrix(1, 0, 0, 1, -31.3909, -100.5)"/><path d="M240.26319029229995,461.8665364424c-17.40408000000002,0.14041999999994914,-40.439329999999984,-2.710939999999937,-45.07625999999999,-5.535480000000007c-3.531260000000003,-2.1510000000000105,-4.9384299999999826,-9.869450000000029,-5.4092600000000175,-13.430430000000001c-0.3260699999999872,0.014000000000010004,-0.5146299999999826,0.01999999999998181,-0.5146299999999826,0.01999999999998181s0.976380000000006,12.432759999999973,5.613309999999984,15.257299999999987s27.672169999999994,5.675889999999981,45.07626000000005,5.535469999999918c5.023860000000013,-0.04052000000001499,6.759199999999964,-1.827929999999924,6.663909999999987,-4.475259999999935c-0.6979800000000296,1.5995100000000093,-2.6140400000000454,2.5982500000000073,-6.353330000000028,2.628400000000056Z" opacity=".2" transform="matrix(1, 0, 0, 1, -31.3909, -100.5)"/><ellipse cx="270.648" cy="574.582" opacity=".1" rx="157" ry="21.359"/><rect width="208" height="242" x="180.648" y="309.082" fill="#3d4755"/><rect width="250" height="86" x="159.648" y="285.082" fill="#FFFFFF"/><rect width="250" height="86" x="159.648" y="387.082" fill="#FFFFFF"/><rect width="250" height="86" x="159.648" y="489.082" fill="rgb(255, 255, 255)"/><rect width="16" height="16" x="343.649" y="300.082" fill="#02818f" opacity=".4"/><rect width="16" height="16" x="366.649" y="300.082" fill="#02818f" opacity=".8"/><rect width="16" height="16" x="389.649" y="300.082" fill="#02818f"/><rect width="16" height="16" x="343.649" y="401.082" fill="#02818f" opacity=".4"/><rect width="16" height="16" x="366.649" y="401.082" fill="#02818f" opacity=".8"/><rect width="16" height="16" x="389.649" y="401.082" fill="#02818f"/><rect width="16" height="16" x="343.649" y="502.082" fill="#02818f" opacity=".4"/><rect width="16" height="16" x="366.649" y="502.082" fill="#02818f" opacity=".8"/><rect width="16" height="16" x="389.649" y="502.082" fill="#02818f"/></g></svg>